<?xml version="1.0" encoding="utf-8"?>
<svg version="1.1" xmlns="http://www.w3.org/2000/svg" xmlns:xlink="http://www.w3.org/1999/xlink" viewBox="-241 376.4 19 16.5">
<path d="M-225.4,379.6v-3.3h-1.1v3.3h-3.4v1.1h3.4v3.3h1.1v-3.3h3.4v-1.1H-225.4z M-230.7,376.4h-4.6c0,0-4.7,0.1-4.7,4.1c0,4,4.1,3.5,4.1,3.5v1c0,0.4,0.5,0.3,0.6,1.1c-0.3,0-5.7-0.2-5.7,3.4c0,3.6,4.8,3.4,4.8,3.4s5.5,0.2,5.5-4.2c0-2.7-3.1-3.5-3.1-4.6c0-1.1,2.4-1.4,2.4-3.9c0-1.5-0.1-2.4-1.3-3C-232.8,376.8-230.7,377.1-230.7,376.4L-230.7,376.4z M-232.2,389c0.1,1.4-1.4,2.6-3.3,2.8c-1.9,0.1-3.5-0.9-3.6-2.3c-0.1-1.4,1.4-2.6,3.3-2.7C-233.9,386.6-232.3,387.6-232.2,389L-232.2,389z M-235,383c-1.1,0.3-2.4-0.7-2.8-2.3c-0.4-1.6,0.1-3.1,1.3-3.4c1.1-0.3,2.4,0.7,2.8,2.3C-233.3,381.2-233.9,382.7-235,383L-235,383z"/>
</svg>
