<?xml version="1.0" encoding="utf-8"?>
<svg version="1.1" id="Layer_1" xmlns="http://www.w3.org/2000/svg" xmlns:xlink="http://www.w3.org/1999/xlink" viewBox="-238 378.9 13.1 13">
<path d="M-236.4,378.9c0.9,0,1.6,0.7,1.6,1.6c0,0.9-0.7,1.6-1.6,1.6c-0.9,0-1.6-0.7-1.6-1.6C-238,379.6-237.3,378.9-236.4,378.9z M-237.8,383.2h2.7v8.7h-2.7L-237.8,383.2L-237.8,383.2z M-233.4,383.2h2.6v1.2h0c0.4-0.7,1.2-1.4,2.6-1.4c2.7,0,3.2,1.8,3.2,4.1v4.8h-2.7v-4.2c0-1,0-2.3-1.4-2.3c-1.4,0-1.6,1.1-1.6,2.2v4.3h-2.7L-233.4,383.2"/>
</svg>
