<?xml version="1.0" encoding="UTF-8" standalone="no"?>
<svg viewBox="0 0 940 539" version="1.1" xmlns="http://www.w3.org/2000/svg" xmlns:xlink="http://www.w3.org/1999/xlink">
    <path fill="#e8e8e8" d="M316.729506,3.1 C308.4295,4.8 301.129494,6.5 300.329494,6.7 C299.229493,7.1 299.829493,8.3 302.529495,11.3 L306.229498,15.3 L301.429494,26.6 C297.829492,35.4 296.02949,38.3 293.729489,39.8 C292.129487,40.8 290.029486,41.6 289.129485,41.6 C287.429484,41.6 269.82947,49.6 270.429471,50.1 C270.629471,50.2 276.029475,52.3 282.52948,54.6 C293.429488,58.4 294.529489,58.6 296.12949,57.2 C297.129491,56.3 298.629492,55.6 299.529493,55.6 C300.329494,55.6 301.429494,54.6 301.829495,53.4 C302.229495,52.1 303.429496,49.8 304.629497,48.2 C308.2295,43.3 327.229514,28.4 340.029524,20.6 C346.729529,16.5 352.129533,12.9 352.129533,12.6 C352.129533,12.3 347.52953,9.4 341.929525,6 L331.629517,0 L316.729506,3.1 L316.729506,3.1 L316.729506,3.1 Z M286.329483,21.8 C283.529481,30.1 281.429479,37.2 281.729479,37.4 C281.92948,37.6 284.029481,37.2 286.229483,36.5 C290.029486,35.2 290.829486,34.3 295.02949,26.6 L299.529493,18.1 L295.72949,12.3 C293.629488,9.2 291.829487,6.6 291.629487,6.6 C291.529487,6.6 289.129485,13.4 286.329483,21.8 L286.329483,21.8 L286.329483,21.8 Z M375.529551,10.5 C370.829547,12.8 363.129541,15.4 357.129537,16.7 C347.52953,18.9 346.229529,19.5 338.729523,25.1 C334.329519,28.4 327.229514,34.5 322.829511,38.6 L315.029505,46.2 L318.529507,53.1 C320.429509,57 325.129512,65.5 328.929515,72.1 L335.829521,84.1 L337.429522,99.1 L339.129523,114 L335.22952,123.3 L331.329517,132.6 L333.329519,140.6 C335.12952,148.4 340.529524,160.6 342.029525,160.6 C342.429526,160.6 348.72953,154.2 355.929536,146.3 C368.429545,132.7 369.529546,131.8 380.929555,125.4 C402.229571,113.3 400.72957,114.8 406.929575,98.4 C410.329577,89.4 414.02958,77 416.729582,65.1 C420.829585,46.9 421.229586,46 424.329588,43.6 C426.129589,42.2 428.729591,40.2 430.129592,39 L432.629594,36.9 L428.129591,31.7 C425.729589,28.9 423.529587,26.6 423.229587,26.6 C422.929587,26.6 421.129586,28.9 419.229584,31.7 C415.529581,37.2 414.529581,37 416.129582,30.9 C417.729583,25.2 417.529583,24.6 414.02958,24.5 C411.729578,24.4 412.529579,24 416.929582,23.2 C420.329585,22.6 423.329587,21.8 423.629588,21.5 C423.929588,21.2 421.629586,19.7 418.429584,18.2 C414.729581,16.4 411.529578,13.9 409.329577,11 L406.029574,6.6 L394.829566,6.6 C383.829557,6.6 383.429557,6.7 375.529551,10.5 L375.529551,10.5 L375.529551,10.5 Z M216.52943,28.4 L207.229423,31.9 L211.029425,34.7 C213.029427,36.3 215.229429,37.6 215.929429,37.6 C216.52943,37.6 219.829432,36.4 223.229435,34.9 C227.529438,33.1 229.129439,31.9 228.729439,30.9 C228.429439,30.1 227.929438,28.3 227.629438,27 C226.929438,24.1 227.829438,24 216.52943,28.4 L216.52943,28.4 L216.52943,28.4 Z M646.229757,40.1 L646.229757,47.7 L639.329752,50.8 C631.829746,54.1 631.229746,54.9 631.229746,62.7 C631.229746,71.6 630.529745,73.1 625.129741,75.6 C622.429739,76.9 620.229737,78.1 620.229737,78.3 C620.229737,78.5 621.629738,80.5 623.22974,82.8 C624.929741,85.1 626.029742,87.1 625.829742,87.4 C625.529741,87.6 623.22974,87.1 620.629738,86.2 C618.029736,85.3 615.729734,84.6 615.529734,84.6 C615.329734,84.6 616.229734,86.1 617.529735,87.8 C621.729738,93.5 621.729738,94.2 617.729735,91 C615.529734,89.3 612.529731,87.1 611.12973,86.2 L608.429728,84.5 L609.429729,89.3 C609.929729,91.9 611.22973,96.9 612.429731,100.3 C614.329733,106.3 614.529733,106.6 617.529735,106.6 C620.429738,106.6 620.529738,106.7 619.029736,108.2 C617.729735,109.5 617.529735,111.1 618.029736,116 C618.529736,121.5 618.429736,122 616.929735,120.8 C616.129734,120.1 615.129733,117.2 614.729733,114.4 C614.329733,111.6 612.329731,106.1 610.12973,102 C608.029728,98 606.229727,93.6 606.229727,92.4 C606.229727,87 605.229726,85.6 601.229723,85.6 C597.72972,85.6 597.42972,85.8 596.82972,89.3 C595.329718,98.9 596.729719,104 601.729723,107.5 C603.629725,108.8 605.229726,110.7 605.229726,111.7 C605.229726,114.2 604.429725,114.1 601.529723,111.4 C600.129722,110.1 596.129719,108.6 591.029715,107.5 C578.929706,104.8 577.929705,105 582.529709,109 L586.329712,112.4 L577.529705,113.1 L568.729698,113.8 L563.129694,119.9 C560.129692,123.2 557.129689,125.7 556.529689,125.3 C555.929688,124.9 554.929688,122.6 554.329687,120.1 C553.429686,116.7 552.729686,115.6 551.229685,115.6 C548.829683,115.6 548.829683,115.5 550.729684,123.1 C552.529686,130.7 552.529686,130.9 550.729684,130.2 C549.929684,129.9 547.929682,130.2 546.329681,130.7 C543.729679,131.6 543.429679,132.1 543.929679,134.7 C544.62968,138.1 542.529678,139.4 539.229676,137.6 C536.529674,136.1 535.729673,136.8 537.229674,139.5 C538.629675,142.2 536.329673,142.4 533.429671,139.8 C530.929669,137.6 525.729665,128.6 526.929666,128.6 C527.529667,128.6 530.129669,129.3 532.829671,130.1 C539.629676,132.2 540.829677,132 543.129679,128.7 L545.22968,125.8 L536.429673,119.3 C531.62967,115.8 525.729665,111.6 523.229663,110.1 L518.82966,107.3 L509.329653,108.5 C504.129649,109.2 499.129645,110.1 498.129644,110.5 C497.129644,110.8 491.829639,118.3 486.329635,127 C477.229628,141.4 475.629627,143.4 469.529622,147.8 C465.82962,150.5 462.629617,152.9 462.529617,153 C462.129617,153.3 468.029621,170.8 468.729622,171.4 C468.929622,171.7 470.729623,170.4 472.729625,168.7 C476.229628,165.7 478.229629,165.4 478.229629,167.9 C478.229629,168.6 479.62963,172 481.229631,175.5 C483.529633,180.2 484.629634,181.7 485.829635,181.2 C486.729636,180.9 488.029637,180.6 488.729637,180.6 C489.429638,180.6 490.829639,178.2 491.729639,175.3 C492.72964,172.5 494.229641,169.3 495.029642,168.3 C496.329643,166.8 496.429643,166.1 495.429642,164.6 C494.829642,163.5 493.829641,160.6 493.229641,158.1 C492.22964,153.5 492.22964,153.4 496.229643,148.9 C498.429645,146.4 500.629646,142.7 501.229647,140.7 C502.329647,136.4 505.62965,133.9 507.829652,135.7 C510.129653,137.6 509.429653,140 505.72965,143.6 C502.829648,146.5 502.229647,147.7 502.229647,151.3 C502.229647,154.8 502.829648,156.2 504.929649,158.2 C507.329651,160.4 508.129652,160.6 513.129656,160.1 C521.029662,159.2 522.429663,160.4 521.529662,167.5 C521.029662,172.2 520.729662,172.7 519.629661,171.1 C518.72966,169.9 518.62966,168.7 519.22966,167.6 C521.329662,163.6 513.129656,161.9 509.729653,165.6 C507.929652,167.6 507.929652,167.7 510.229654,170.1 C512.029655,172.1 512.329655,172.9 511.429654,173.8 C510.529654,174.7 509.929653,174.6 509.029653,173.3 C507.829652,171.7 507.529651,171.7 505.42965,173.2 C503.429648,174.6 503.229648,175.4 503.729649,178.5 C504.529649,183.4 501.829647,186.3 498.029644,184.5 C496.029643,183.7 494.829642,183.7 492.62964,184.8 C491.029639,185.6 486.929636,186.2 483.229633,186.2 L476.729628,186.1 L476.729628,180.4 C476.729628,173.4 475.229627,171.4 472.829625,175.1 C471.229624,177.5 471.229624,178.1 472.629625,182.9 C473.429625,185.7 474.029626,188.1 473.929626,188.1 C469.929623,190.1 457.929614,198.3 455.829612,200.5 C454.129611,202.2 452.029609,203.6 451.029608,203.6 C450.029608,203.6 449.229607,204.3 449.229607,205.1 C449.229607,205.9 448.429606,206.5 447.529606,206.4 C446.529605,206.3 444.429603,206.4 442.829602,206.4 L439.9296,206.6 L444.629604,211.6 C449.429607,216.7 449.629607,217.3 448.629607,222.5 L448.029606,225.6 L439.129599,225.6 C434.329596,225.6 430.129592,226 429.829592,226.4 C429.529592,226.8 429.729592,230.7 430.129592,234.9 C430.729593,241.5 431.229593,243 433.729595,245.6 C436.329597,248.3 437.129598,248.6 443.129602,248.6 C449.029607,248.5 449.929608,248.3 451.529609,246 C452.72961,244.4 453.22961,242.6 452.82961,241.2 C452.329609,239.3 453.02961,238.3 456.229612,236.1 C459.529615,233.8 460.229615,232.8 460.229615,230 C460.229615,226.7 460.429616,226.6 464.029618,226.6 C466.02962,226.6 469.929623,225.9 472.729625,225.1 L477.629629,223.6 L481.529632,228.1 C483.729633,230.6 487.229636,233.6 489.329638,234.6 C493.529641,236.8 495.529642,239.6 494.629642,242 C494.329641,242.8 494.329641,244 494.729642,244.6 C495.929643,246.6 498.329644,242 497.629644,239 C497.029643,236.7 497.229644,236.5 499.129645,237.1 C502.329647,238.1 501.729647,235.9 498.229644,234.1 C496.629643,233.2 495.229642,232.1 495.229642,231.6 C495.229642,231 494.429641,230.6 493.429641,230.6 C492.32964,230.6 490.429638,228.5 488.429637,225.3 C483.529633,217.3 484.429634,216.5 491.92964,222.1 C501.229647,228.7 503.229648,230.8 503.229648,233.1 C503.229648,234.4 504.329649,236.7 505.52965,238.3 C507.429651,240.5 507.829652,241.9 507.429651,245 C507.129651,248 507.329651,248.7 508.329652,248.4 C509.129653,248.1 510.729654,248.8 512.029655,249.9 L514.229657,251.9 L514.229657,249.8 C514.229657,248.1 514.829657,247.6 516.729658,247.6 L519.22966,247.6 L516.229658,243.4 C514.629657,241.2 513.229656,238.7 513.229656,238 C513.229656,236 516.629658,234.6 521.629662,234.6 C525.629665,234.6 526.229666,234.3 526.829666,232.1 C527.129666,230.7 527.229666,229 526.929666,228.3 C526.729666,227.6 528.229667,223.7 530.329669,219.6 C532.42967,215.5 534.129672,212.9 534.229672,213.8 C534.229672,216.1 536.129673,216.1 544.72968,213.7 C548.529683,212.6 551.829685,211.9 552.029685,212 C552.129685,212.2 551.829685,213.5 551.229685,215 C549.729684,219.1 549.829684,219.3 555.729688,223.2 C559.629691,225.8 561.229692,227.5 561.229692,229.1 C561.229692,230.3 561.029692,231.5 560.729692,231.8 C560.429692,232.1 555.929688,231.6 550.729684,230.7 C541.829678,229.1 541.229677,229.1 539.029675,230.8 C537.729674,231.8 533.629671,233.5 529.729668,234.7 C525.929665,235.9 522.429663,237 522.129663,237.2 C521.829662,237.4 522.029663,240.1 522.529663,243.2 L523.629664,248.8 L536.929674,248.1 C544.229679,247.7 550.229684,247.7 550.229684,248.1 C550.229684,248.6 549.029683,252.8 547.629682,257.6 L545.02968,266.3 L540.829677,265.5 C536.729674,264.8 535.229673,265.5 535.229673,268.4 C535.229673,270.1 533.529671,269.6 521.229662,264.4 L511.829655,260.4 L508.229652,264.6 L504.629649,268.8 L492.42964,263 L480.229631,257.3 L480.229631,252.5 C480.229631,249.2 479.82963,247.6 479.02963,247.7 C478.329629,247.7 467.029621,249.9 453.829611,252.4 L429.929592,257.2 L426.52959,266.8 C423.329587,275.6 422.429587,277 414.629581,285.4 L406.129574,294.5 L407.229575,308.8 C407.729575,316.7 408.229576,324.8 408.229576,326.8 C408.229576,330.5 408.529576,330.7 420.329585,338.7 L432.529594,346.8 L446.929605,342.7 L461.229616,338.5 L465.329619,341.6 C468.829622,344.5 469.729623,344.7 473.629626,344.2 C477.829629,343.5 477.929629,343.6 479.02963,347.2 C479.92963,350.4 479.82963,351.4 477.529629,356.2 L474.829627,361.5 L482.929633,374.7 L490.929639,387.9 L488.129637,397 C486.529635,402 485.229634,406.9 485.229634,407.8 C485.229634,408.8 489.329638,420.4 494.329641,433.6 C501.029647,451.2 503.929649,457.6 505.12965,457.6 C506.629651,457.6 520.129661,455.2 524.829665,454.1 C526.029666,453.9 531.22967,448.9 536.429673,443.1 L545.929681,432.5 L547.829682,423.3 C549.829684,413.3 550.129684,412.8 561.829693,402.6 L567.029697,398.1 L565.529696,383.8 L564.129695,369.5 L571.6297,360.3 C575.729703,355.2 583.92971,345.3 589.829714,338.3 L600.429722,325.4 L592.629716,326 C588.229713,326.4 583.329709,326.9 581.629708,327.2 C578.629706,327.6 578.329705,327.2 559.229691,299.2 C548.629683,283.5 539.129676,270.5 538.329675,270.3 C537.329674,270 537.529674,269.8 538.929675,269.7 C540.229676,269.6 542.329678,270.9 544.129679,272.8 L547.129682,276 L548.029682,273.7 C548.729683,271.6 550.529684,274.1 562.829694,295.1 C570.429699,308.1 577.229705,319 577.929705,319.3 C578.529706,319.5 586.529712,315.9 595.629719,311.1 C611.929731,302.6 612.229731,302.4 615.329734,296.9 L618.629736,291.2 L616.129734,289.7 C614.829733,288.8 612.129731,286.6 610.12973,284.8 C608.129728,283.1 606.229727,281.6 605.829726,281.6 C605.529726,281.6 603.329724,282.8 601.129723,284.2 C598.829721,285.6 596.629719,286.4 596.229719,285.9 C594.329718,283.9 582.329708,265.2 582.629709,264.8 C582.829709,264.6 584.72971,265.5 586.929712,266.8 C596.82972,273 608.829729,277.5 621.829739,280 C634.129748,282.3 635.529749,282.8 644.029755,288.1 C649.029759,291.2 653.429763,294.2 653.929763,294.9 C654.429763,295.6 658.429766,305.1 662.72977,316.1 L670.529776,336.1 L674.429779,324.4 L678.329782,312.8 L688.92979,303 C699.029797,293.6 707.229804,288.2 708.029804,290.5 C708.229804,291.1 710.329806,295.6 712.829808,300.6 L717.229811,309.6 L720.929814,308 C723.029816,307.1 725.329817,306.2 726.029818,305.9 C727.329819,305.3 727.829819,312.3 727.329819,325.6 L727.129819,333.1 L736.229826,341.5 C741.22983,346.1 745.529833,349.7 745.629833,349.5 C745.829833,349.3 743.129831,344.6 739.629828,339.1 C733.629824,329.8 733.229823,328.8 733.729824,324.6 C734.029824,322.2 734.629825,319.9 735.029825,319.5 C735.429825,319.1 739.029828,321.6 743.129831,325.1 L750.529837,331.4 L755.42984,327.3 C760.729844,322.7 760.729844,322.8 759.129843,315.7 C758.229843,311.3 757.529842,310.4 753.529839,308.1 C748.629835,305.2 748.529835,304.5 751.729838,297 C752.929838,294.2 754.42984,293.3 767.42985,288.1 L781.929861,282.4 L785.529863,275 C787.629865,270.9 789.229866,266.8 789.229866,266 C789.229866,265.1 786.129864,257.4 782.229861,248.9 L775.329856,233.4 L778.029858,230 C780.82986,226.4 781.42986,226.2 787.529865,227.2 L791.229868,227.9 L791.229868,236.5 C791.229868,241.2 791.529868,246.1 791.829868,247.3 L792.429869,249.4 L798.429873,247.4 L804.529878,245.3 L803.829877,230.9 L803.229877,216.5 L808.729881,210 C811.729883,206.4 814.429885,202.5 814.729886,201.3 C815.029886,200.1 815.129886,191 815.029886,181.1 L814.729886,163.1 L807.92988,162 C804.229878,161.4 800.729875,160.5 800.329875,160 C799.829874,159.5 798.629873,155.2 797.629873,150.3 C795.829871,141.7 795.829871,141.5 797.729873,139.7 C804.829878,132.9 842.629907,99.6 843.229907,99.6 C843.629908,99.6 844.529908,102.5 845.229909,106 C846.32991,112 846.22991,113.3 843.229907,126 L840.029905,139.5 L849.829912,150.4 C856.429917,157.6 859.82992,160.7 860.02992,159.6 C860.22992,158.2 856.329917,124.2 854.629916,113.6 L854.129916,110.1 L869.729928,102.7 C878.329934,98.6 885.129939,95 885.029939,94.5 C884.829939,94.1 880.529936,90.6 875.329932,86.6 L866.029925,79.4 L872.92993,72.2 C876.729933,68.3 881.329936,63.4 883.029938,61.3 C886.02994,57.8 886.12994,57.3 884.829939,54.8 C884.129938,53.3 882.929938,49.7 882.229937,46.8 C881.629937,44 880.729936,41.4 880.329936,41.2 C878.329934,40.1 852.129914,43 835.729902,46.2 L816.729887,49.9 L781.22986,48.3 L745.729833,46.6 L740.529829,52.3 C735.529825,57.6 735.229825,58.2 735.229825,63.3 C735.229825,69.7 733.829824,70.1 731.329822,64.3 C730.229821,62 727.429819,58.2 725.029817,55.8 C720.629814,51.5 720.629814,51.5 714.829809,52.2 C709.629805,52.8 709.029805,53.1 708.529805,55.6 C708.129804,57.7 707.329804,58.5 704.929802,59 C701.729799,59.6 701.429799,59.5 698.729797,55.2 C697.829796,53.9 696.029795,54.7 686.229788,60.7 C679.929783,64.6 674.029778,68.2 673.129778,68.7 C671.629777,69.5 671.629777,68.6 673.429778,60.8 C674.629779,56 675.529779,50.1 675.62978,47.7 C675.72978,43.7 675.429779,43 672.229777,40.9 C670.329776,39.6 668.129774,38.7 667.229773,39 C661.329769,40.9 661.329769,40.9 660.629768,38.2 C659.829768,34.7 658.529767,34 652.029762,33.2 L646.229757,32.6 L646.229757,40.1 L646.229757,40.1 L646.229757,40.1 Z M220.729433,40.3 C217.42943,41.7 214.629428,42.9 214.429428,43 C214.329428,43.2 215.129429,45.9 216.32943,49 L218.529431,54.7 L225.629437,54.1 C237.029445,53.2 241.229448,52.5 241.229448,51.7 C241.229448,51.3 240.229448,47.9 238.929447,44.1 L236.629445,37.3 L234.529443,39.9 L232.429442,42.6 L230.829441,40.1 C228.829439,37.1 228.329439,37.1 220.729433,40.3 L220.729433,40.3 L220.729433,40.3 Z M96.7293384,51.1 L80.7293262,56.3 L80.4293259,65.4 L80.1293257,74.5 L75.5293222,72.5 L70.8293186,70.5 L65.0293142,76.4 L59.1293097,82.2 L63.2293128,85.4 C66.9293157,88.4 67.5293161,88.6 70.9293187,87.7 C72.9293202,87.1 74.7293216,86.8 74.9293218,86.9 C75.0293218,87.1 74.1293211,88.8 72.7293201,90.8 C70.8293186,93.6 68.5293169,95 62.2293121,97.6 C57.7293086,99.4 53.8293057,101.4 53.6293055,102.1 C53.3293053,102.8 54.6293063,108.5 56.5293077,114.9 L60.0293104,126.6 L51.7293041,132.5 C47.1293006,135.8 42.6292971,138.9 41.5292963,139.4 C40.5292955,139.9 30.5292879,142.1 19.3292794,144.2 C8.12927085,146.3 -0.570735784,148.2 0.029264673,148.4 C0.62926513,148.6 11.5292734,147.1 24.3292832,145.1 L47.5293009,141.5 L62.6293124,133.1 L77.829324,124.6 L90.7293338,124.6 L103.729344,124.7 L116.429353,145.6 L129.129363,166.6 L126.829361,186.8 C125.52936,198 123.429359,215.3 122.129358,225.3 L119.729356,243.6 L126.929361,250.8 C133.529366,257.6 134.429367,259.1 140.329372,272.8 C143.829374,280.9 146.829377,287.4 147.029377,287.2 C147.129377,287 146.129376,281.8 144.729375,275.6 C143.329374,269.4 142.329373,264.2 142.529373,263.9 C142.729373,263.7 146.829377,269.5 151.52938,276.8 C158.429385,287.5 160.129387,291 160.429387,294.5 L160.729387,298.8 L173.829397,305.7 C184.629405,311.4 187.429407,312.5 189.329409,311.7 C191.22941,311 193.429412,311.7 200.229417,315.2 C207.329423,318.7 209.229424,320.3 211.829426,324.3 C214.629428,328.6 215.729429,329.4 222.629434,331.8 C229.92944,334.4 230.22944,334.4 231.229441,332.7 C232.029441,331.1 232.829442,330.9 235.729444,331.6 C240.129448,332.6 239.429447,331.1 234.629443,329.6 C231.929441,328.7 230.829441,328.7 229.52944,329.7 C228.229439,330.9 227.529438,330.5 224.529436,327.1 C221.429433,323.5 221.129433,322.6 221.629434,318.9 L222.129434,314.7 L214.729428,312.5 C210.629425,311.3 207.229423,310 207.229423,309.6 C207.229423,309.3 208.329423,305.6 209.729424,301.6 C211.129426,297.6 212.129426,294.2 211.929426,294 C211.829426,293.9 209.929425,294.1 207.729423,294.5 C204.32942,295 203.42942,295.8 201.429418,299.4 C199.229416,303.3 198.829416,303.6 194.829413,303.6 C189.329409,303.6 186.429407,300.6 184.729405,293.4 C183.429404,287.4 184.629405,278.9 187.529408,274.5 C189.129409,272.1 190.32941,271.8 202.529419,270.2 C209.729424,269.2 217.52943,268.2 219.829432,267.9 C223.829435,267.4 223.929435,267.5 225.529437,271.2 C230.02944,282.3 230.32944,282.8 231.629441,281.7 C232.629442,280.8 232.829442,278.5 232.529442,272.2 L231.929441,263.9 L239.529447,258 C246.429452,252.7 247.429453,251.4 251.229456,243.6 C254.729459,236 255.82946,234.7 260.029463,232.2 C263.429465,230.2 265.429467,228.2 266.829468,225.2 C268.529469,221.6 269.22947,221 273.129473,220.3 C276.129475,219.7 278.229477,219.8 279.729478,220.6 C281.429479,221.5 283.229481,221.3 289.029485,219.6 C293.029488,218.4 296.22949,217.2 296.22949,217 C296.22949,216.8 295.52949,214.9 294.629489,212.7 C293.129488,209 292.929488,208.8 289.629485,209.3 L286.129483,209.9 L287.829484,205.7 C288.729485,203.4 289.229485,201.3 289.029485,201 C288.729485,200.8 286.629483,201.3 284.229481,202.1 C281.829479,202.9 279.729478,203.4 279.429478,203.2 C278.329477,202 288.129484,198.4 298.129492,196.4 C304.229497,195.2 309.2295,193.7 309.2295,193.2 C309.2295,192.3 298.129492,154.4 297.629491,153.8 C297.529491,153.6 295.02949,155.3 292.029487,157.6 L286.729483,161.9 L284.729482,155.3 C282.82948,148.9 282.62948,148.7 275.929475,144.7 C272.229472,142.4 268.729469,140.6 268.329469,140.6 C267.929469,140.6 265.929467,144.6 264.029466,149.4 C260.429463,158.1 260.429463,158.2 261.729464,164.5 L263.029465,170.8 L257.729461,173.2 L252.529457,175.6 L251.829457,182.6 L251.129456,189.6 L248.429454,187.5 C246.029452,185.6 245.729452,184.7 245.729452,179.2 C245.729452,173.2 245.729452,173.1 242.82945,172.8 C238.529446,172.3 228.429439,163.1 226.029437,157.6 C221.829434,147.9 220.929433,149.7 234.829444,138.2 C241.629449,132.4 252.829457,123.8 259.529462,119 C266.229468,114.2 271.929472,110.1 272.029472,110 C272.629472,109.6 270.129471,102.3 269.12947,101.2 C268.729469,100.7 265.529467,102.7 262.029464,105.6 L255.72946,110.9 L255.429459,105.7 C255.129459,100.9 254.929459,100.6 252.829457,101.2 C251.129456,101.6 250.329455,101.1 249.429455,99.1 L248.229454,96.5 L242.529449,102.7 L236.829445,108.8 L235.729444,105.8 C234.229443,101.3 232.729442,100 230.829441,101.5 C228.429439,103.5 218.129431,99.9 216.92943,96.5 C216.029429,94.1 215.629429,94 212.729427,94.9 C210.429425,95.6 208.929424,97 207.729423,99.5 L205.929422,103.1 L205.029421,100.5 C204.12942,97.8 201.129418,96.6 195.629414,96.6 C192.829412,96.6 192.729412,96.3 194.929413,93 C195.929414,91.4 196.229414,90.2 195.629414,89.8 C195.029413,89.4 191.829411,87 188.529408,84.3 C184.829406,81.5 181.329403,79.6 179.829402,79.6 C177.6294,79.6 177.1294,79 176.129399,75.1 C175.529398,72.6 174.629398,70.4 174.229397,70.1 C173.829397,69.9 168.329393,71.7 161.929388,74.2 L150.329379,78.8 L132.529366,62.2 C122.729358,53.1 114.329352,45.7 113.729351,45.7 C113.229351,45.8 105.529345,48.2 96.7293384,51.1 L96.7293384,51.1 L96.7293384,51.1 Z M192.229411,50.8 C191.12941,52.6 189.229409,56 188.029408,58.4 L185.729406,62.7 L195.029413,71.2 C200.029417,75.9 204.22942,80.2 204.22942,80.7 C204.22942,81.2 202.429419,81.6 200.229417,81.6 C198.029416,81.6 196.229414,82.1 196.229414,82.6 C196.229414,83.2 197.429415,86 198.829416,88.8 L201.429418,93.8 L210.529425,93.1 C221.929434,92.3 229.229439,90.8 229.229439,89.3 C229.229439,88.7 228.729439,85.7 228.029438,82.6 C226.929438,77.1 226.929438,76.8 230.12944,71.3 L233.329442,65.6 L227.429438,65.6 C222.229434,65.6 221.029433,65.2 216.92943,62 C213.229427,59.1 212.129426,57.5 211.229426,53.7 L210.129425,48.9 L204.929421,48.2 C195.429414,47.1 194.329413,47.3 192.229411,50.8 L192.229411,50.8 L192.229411,50.8 Z M272.729473,82.8 C268.329469,88.4 264.629466,93.3 264.429466,93.7 C264.229466,94.1 267.529469,95.7 271.829472,97.3 L279.429478,100.1 L283.229481,108.3 C288.929485,120.6 289.129485,119.4 281.229479,125.6 C277.429476,128.6 274.329474,131.3 274.229474,131.6 C274.229474,132.2 290.529486,143.6 293.429488,145 C294.829489,145.7 295.92949,145.3 298.229492,143.1 C300.629494,140.8 300.929494,140 300.129493,137.9 C299.629493,136.6 299.229493,133.5 299.229493,131 L299.229493,126.6 L301.729495,128.2 C304.029496,129.7 304.329497,129.6 307.729499,126.9 C309.629501,125.4 311.229502,123.8 311.229502,123.5 C311.229502,123.2 309.4295,120.9 307.329499,118.4 C303.729496,114.4 303.529496,113.8 304.829497,112.4 C306.229498,111 305.129497,108.9 293.829489,91.7 C286.929483,81.2 281.129479,72.6 281.029479,72.6 C280.829479,72.6 277.129476,77.2 272.729473,82.8 L272.729473,82.8 L272.729473,82.8 Z M396.229567,138.5 C396.229567,141.7 396.729567,143.6 397.629568,143.9 C398.329568,144.2 402.929572,144.7 407.829575,145.1 L416.729582,145.8 L419.129584,141.6 C420.329585,139.3 421.229586,137.3 421.129586,137.2 C420.729585,136.9 398.529568,133.6 397.029567,133.6 C396.529567,133.6 396.229567,135.8 396.229567,138.5 L396.229567,138.5 L396.229567,138.5 Z M437.429598,172.1 C436.029597,175.1 436.929598,180.6 438.829599,180.6 C439.6296,180.6 440.2296,181.5 440.2296,182.6 C440.2296,183.9 440.929601,184.6 442.129602,184.6 C444.929604,184.6 445.429604,188.3 443.029602,190.6 C441.929601,191.6 441.329601,192.9 441.629601,193.4 C441.929601,194 441.429601,194.7 440.4296,195.1 C438.829599,195.7 438.829599,195.8 440.5296,196.8 C441.529601,197.3 443.129602,197.5 444.029603,197.1 C445.929605,196.4 445.229604,197.1 440.829601,200.4 C437.629598,202.9 437.929598,203 444.229603,201.5 C453.52961,199.4 456.229612,198.5 455.729612,197.6 C455.429612,197.1 455.529612,195.8 456.129612,194.8 C457.229613,192.7 456.029612,190 454.329611,191 C453.72961,191.4 453.22961,191.2 453.22961,190.5 C453.22961,189.8 451.529609,187 449.329607,184.1 C445.829604,179.5 445.629604,178.8 446.829605,177.1 C448.929607,174.3 448.529606,172.6 445.729604,172.6 C443.929603,172.6 443.429603,172.2 443.829603,171.1 C444.329603,170 443.729603,169.6 441.529601,169.6 C439.329599,169.6 438.229599,170.3 437.429598,172.1 L437.429598,172.1 L437.429598,172.1 Z M826.529895,207.8 C825.929894,212.4 825.629894,216.2 825.729894,216.4 C826.529895,217.4 837.429903,211 840.629905,207.8 L844.529908,203.8 L837.529903,201.7 C827.229895,198.6 827.629895,198.4 826.529895,207.8 L826.529895,207.8 L826.529895,207.8 Z M831.229898,218.6 C831.229898,218.9 830.329897,223.4 829.429897,228.6 L827.629895,238.1 L823.029892,239.6 C818.629889,241 807.22988,248.1 807.22988,249.5 C807.22988,250.5 812.729884,260.6 813.229884,260.6 C813.529885,260.6 814.829886,258.6 816.129887,256.2 C818.029888,252.5 820.12989,250.7 827.729895,246.2 L837.029903,240.6 L834.629901,230.4 C832.229899,220.1 831.529898,217.7 831.229898,218.6 L831.229898,218.6 L831.229898,218.6 Z M794.82987,308 C789.629866,316.4 789.829867,314.6 793.229869,327.9 C795.029871,334.6 796.729872,340.4 797.129872,340.8 C797.429872,341.2 800.929875,341 804.729878,340.2 C809.829882,339.3 811.629883,338.5 811.429883,337.5 C811.229883,336.7 807.72988,329.2 803.729877,320.8 C796.429872,305.4 796.429872,305.4 794.82987,308 L794.82987,308 L794.82987,308 Z M246.029452,326.7 C242.82945,328.9 240.229448,330.9 240.229448,331.1 C240.229448,337 237.129445,348.9 232.729442,360.1 L227.329438,373.9 L234.229443,385.5 C240.329448,395.6 242.329449,398 250.029455,404.6 L258.929462,412.1 L259.629463,432.1 C260.129463,447.7 260.029463,453.8 258.829462,459.7 C258.029461,463.8 257.029461,474 256.72946,482.2 C256.02946,496.3 256.12946,498.1 258.729462,510.2 C261.729464,524.3 262.329465,525.3 273.429473,534.7 L278.129477,538.7 L284.129481,536.9 C287.529484,535.9 290.229486,534.8 290.229486,534.5 C290.229486,534.2 288.429484,533.1 286.129483,532.1 C282.82948,530.5 281.629479,529.2 279.629478,524.8 L277.229476,519.4 L279.929478,514.9 L282.52948,510.4 L280.829479,505.6 C279.129477,500.9 279.129477,500.5 281.229479,493.7 C282.42948,489.6 283.02948,485.6 282.62948,484.1 C282.02948,481.8 282.22948,481.6 285.629482,481.6 C289.029485,481.6 289.229485,481.4 289.229485,478.1 C289.229485,474.5 289.529485,474.3 298.129492,473.4 C302.229495,472.9 302.929496,470.3 300.429494,465.1 C299.229493,462.6 298.229492,460.3 298.229492,460 C298.229492,459.8 300.429494,459.8 303.129496,460.2 L307.929499,460.8 L314.629504,450.2 C320.129509,441.5 321.229509,438.9 321.229509,435.4 L321.229509,431.1 L331.629517,425.6 L342.129525,420.1 L344.629527,406.9 C346.529529,397.3 348.42953,390.9 351.729533,383.5 C354.129535,377.8 356.029536,373.1 355.829536,372.9 C355.729536,372.7 347.92953,369.4 338.729523,365.6 C321.42951,358.4 321.229509,358.4 312.429503,360.2 L310.129501,360.7 L312.629503,357 L315.129505,353.3 L297.629491,339.7 L280.229478,326 L267.929469,324.7 C261.229464,324 254.829459,323.2 253.729458,323 C252.529457,322.7 249.529455,324.1 246.029452,326.7 L246.029452,326.7 L246.029452,326.7 Z M770.929852,345.9 C761.929845,352.3 759.629844,354.4 760.529844,355.3 C761.229845,356 765.529848,359.2 770.129852,362.6 C776.329856,367 778.829858,368.3 779.429859,367.4 C780.52986,365.6 788.529866,341.5 788.129865,341.2 C782.429861,337.4 783.429862,337.1 770.929852,345.9 L770.929852,345.9 L770.929852,345.9 Z M723.429816,342.5 C722.429815,343.1 725.229817,347.6 733.829824,359.7 C740.229829,368.7 745.729833,376.5 746.129833,376.9 C746.629834,377.3 748.629835,375.2 750.729837,372.2 L754.42984,366.7 L748.629835,361.3 C734.529824,348.4 726.629818,341.6 725.729818,341.6 C725.229817,341.6 724.129817,342 723.429816,342.5 L723.429816,342.5 L723.429816,342.5 Z M824.429893,364 L827.629895,370.6 L835.529901,373.2 C842.429907,375.5 843.429907,376.1 843.829908,378.6 C844.429908,381.2 844.729908,381.4 851.129913,381.8 C854.729916,382.1 858.529919,381.9 859.52992,381.4 C860.929921,380.7 862.829922,381.1 866.429925,382.6 C872.129929,385 871.929929,385.1 874.929931,378.3 C875.929932,376.1 875.929932,375.4 874.929931,375.1 C874.229931,374.8 862.529922,371 848.929912,366.6 C835.329901,362.1 823.429892,358.2 822.629892,357.9 C821.629891,357.5 822.129891,359.4 824.429893,364 L824.429893,364 L824.429893,364 Z M759.429843,377.6 C760.929845,379.9 760.029844,379.7 778.729858,383.4 L792.829869,386.2 L803.529877,383.3 C809.429882,381.7 814.129885,380.2 814.029885,380 C813.629885,379.6 765.729848,375.6 761.329845,375.6 C758.429843,375.6 758.329843,375.8 759.429843,377.6 L759.429843,377.6 L759.429843,377.6 Z M850.229913,400.2 C847.829911,405.9 845.629909,410.6 845.429909,410.6 C845.129909,410.6 834.1299,403.7 833.3299,403 C833.1299,402.9 833.8299,400.7 834.729901,398.1 C835.729902,395.6 836.329902,393.4 836.129902,393.2 C835.929902,392.9 832.229899,392.6 827.929896,392.4 L820.12989,392.1 L817.429888,397.1 C816.029887,399.8 814.729886,402.3 814.529885,402.5 C814.429885,402.7 812.629884,402.2 810.429882,401.3 L806.629879,399.8 L801.229875,406.3 C798.229873,409.8 795.029871,413.6 794.22987,414.7 C793.229869,415.9 788.829866,417.7 781.829861,419.6 C775.829856,421.2 770.829852,422.7 770.629852,422.8 C770.229852,423.3 767.42985,464 767.82985,464.5 C768.62985,465.4 797.629873,461.3 805.629879,459.1 L814.429885,456.7 L820.32989,461.9 C824.129893,465.4 827.729895,469.9 830.729898,475.3 C835.029901,482.9 835.729902,483.7 839.529904,484.6 C841.829906,485.2 844.329908,485.9 845.129909,486.2 C846.72991,486.7 860.42992,484.7 861.929922,483.7 C862.529922,483.4 864.129923,479.5 865.629924,475.1 C867.029925,470.7 871.029928,462.2 874.329931,456.2 L880.429936,445.2 L871.929929,427.7 C867.329926,418 861.729921,405.8 859.62992,400.6 C857.629918,395.4 855.629917,390.8 855.329917,390.4 C855.029916,390 852.729915,394.4 850.229913,400.2 L850.229913,400.2 L850.229913,400.2 Z M588.529713,394.3 C586.929712,397.1 584.92971,398.9 581.229708,400.6 C578.529706,401.9 576.229704,403.3 576.229704,403.8 C576.229704,404.3 574.529703,408.5 572.529701,413.2 C570.529699,417.8 569.129698,421.7 569.329699,421.9 C569.529699,422 572.329701,423.8 575.429703,425.9 L581.229708,429.6 L582.529709,426.4 C583.329709,424.6 585.629711,419.2 587.629713,414.5 C591.029715,406.7 591.329715,405.3 591.029715,398.1 L590.729715,390.3 L588.529713,394.3 L588.529713,394.3 L588.529713,394.3 Z M926.629971,479.3 C928.129972,489.8 928.429972,492.6 927.629972,492.6 C927.129971,492.6 925.62997,493.5 924.329969,494.5 C922.029967,496.2 922.029967,496.4 923.629969,498.9 C925.02997,501 925.12997,501.9 924.229969,503.6 C923.229968,505.4 923.329968,506.1 924.529969,507.4 C925.92997,508.7 926.729971,507.9 932.629975,498.8 C936.229978,493.2 939.22998,488.4 939.22998,488.1 C939.22998,487.8 938.02998,487.6 936.529978,487.6 C934.129977,487.6 933.229976,486.6 930.429974,481.6 C928.629972,478.3 926.929971,475.6 926.629971,475.6 C926.329971,475.6 926.329971,477.3 926.629971,479.3 L926.629971,479.3 L926.629971,479.3 Z M907.629956,512.7 C902.229952,517.7 896.629948,522.8 895.429947,524.1 L893.029945,526.3 L896.629948,528.6 L900.329951,530.8 L904.529954,526.1 C906.829956,523.4 909.029957,520.7 909.529958,520 C909.929958,519.3 911.82996,518.2 913.829961,517.6 C916.129963,516.8 918.129964,515.1 919.829966,512.4 C922.229968,508.7 922.229968,508.3 920.729966,506 C919.929966,504.7 918.829965,503.6 918.429965,503.6 C917.929964,503.6 913.129961,507.7 907.629956,512.7 L907.629956,512.7 L907.629956,512.7 Z"></path>
</svg>