<?xml version="1.0" encoding="utf-8"?>
<svg version="1.1" xmlns="http://www.w3.org/2000/svg" xmlns:xlink="http://www.w3.org/1999/xlink" viewBox="-237 378.9 12 16" xml:space="preserve">
<path d="M-230.6,378.9c-4.2,0-6.4,3.1-6.4,5.7c0,1.6,0.6,3,1.8,3.5c0.2,0.1,0.4,0,0.4-0.2c0-0.2,0.1-0.6,0.2-0.7c0.1-0.2,0-0.3-0.1-0.5c-0.4-0.4-0.6-1-0.6-1.8c0-2.3,1.7-4.4,4.4-4.4c2.4,0,3.7,1.5,3.7,3.5c0,2.6-1.1,4.9-2.8,4.9c-0.9,0-1.6-0.8-1.4-1.8c0.3-1.2,0.8-2.4,0.8-3.3c0-0.8-0.4-1.4-1.2-1.4c-1,0-1.7,1-1.7,2.4c0,0.9,0.3,1.5,0.3,1.5l-1.1,5c-0.3,1.5-0.1,3.3,0,3.5c0,0.1,0.1,0.1,0.2,0c0.1-0.1,1.2-1.6,1.6-3c0.1-0.4,0.6-2.5,0.6-2.5c0.3,0.6,1.2,1.1,2.2,1.1c2.9,0,4.8-2.7,4.8-6.3C-225,381.4-227.2,378.9-230.6,378.9"/>
</svg>
